<svg height="391" viewBox="0 0 535 391" fill="none" xmlns="http://www.w3.org/2000/svg">
<path d="M37.2538 170.086C37.2538 131.482 68.527 100.188 107.105 100.188H424.925C463.503 100.188 494.776 131.482 494.776 170.086V277.264C494.776 315.868 463.503 347.162 424.925 347.162H107.105C68.527 347.162 37.2538 315.868 37.2538 277.264V170.086Z" fill="#D30C7B"/>
<path d="M196.746 101.353C196.746 62.7489 228.02 31.4543 266.597 31.4543H414.448C453.025 31.4543 484.299 62.7489 484.299 101.353V208.53C484.299 247.134 453.025 278.429 414.448 278.429H266.597C228.02 278.429 196.746 247.134 196.746 208.53V101.353Z" fill="#D30C7B"/>
<rect x="348.089" y="124.652" width="60" height="242.315" rx="30" fill="#940754"/>
<rect x="278.239" y="95.5279" width="60" height="271.439" rx="30" fill="#940754"/>
<rect x="208.388" y="161.931" width="60" height="205.036" rx="30" fill="#940754"/>
<rect x="138.537" y="248.14" width="60" height="118.827" rx="30" fill="#940754"/>
<rect x="68.6865" y="212.025" width="60" height="156.107" rx="30" fill="#940754"/>
<rect x="417.94" y="181.736" width="60" height="165.426" rx="30" fill="#940754"/>
<path fill-rule="evenodd" clip-rule="evenodd" d="M333.8 390.179C335.761 390.237 337.727 390.266 339.703 390.266C447.208 390.266 534.358 302.903 534.358 195.133C534.358 87.3641 447.208 0 339.703 0C278.231 0 223.413 28.5646 187.741 73.175H158.158C70.8096 73.175 0 144.158 0 231.721C0 319.284 70.8096 390.266 158.158 390.266H328.481C330.262 390.266 332.033 390.237 333.8 390.179ZM381.327 334.678C438.512 315.926 485.694 260.539 485.694 195.133C485.694 114.306 420.331 48.7833 339.703 48.7833C259.074 48.7833 193.711 114.306 193.711 195.133H145.047C145.047 169.256 150.072 144.555 159.197 121.958H158.158C97.6859 121.958 48.6639 171.1 48.6639 231.721C48.6639 292.341 97.6859 341.483 158.158 341.483H328.481C341.856 341.483 362.173 339.078 381.327 334.678Z" fill="#F7F7FA"/>
</svg>
