<svg height="147" viewBox="0 0 824 147" fill="none" xmlns="http://www.w3.org/2000/svg">
<path d="M53.9016 146.4C45.7682 146.4 38.5016 144.733 32.1016 141.4C25.8349 138.067 21.0349 133.4 17.7016 127.4L16.1016 144H0.901564V-5.72205e-06H17.7016V61.2C20.9016 56.4 25.4349 52.0667 31.3016 48.2C37.3016 44.3333 44.9016 42.4 54.1016 42.4C63.9682 42.4 72.5682 44.6667 79.9016 49.2C87.2349 53.7333 92.9016 59.9333 96.9016 67.8C101.035 75.6667 103.102 84.6 103.102 94.6C103.102 104.6 101.035 113.533 96.9016 121.4C92.9016 129.133 87.1682 135.267 79.7016 139.8C72.3682 144.2 63.7682 146.4 53.9016 146.4ZM52.1016 131.8C58.7682 131.8 64.6349 130.267 69.7016 127.2C74.7682 124 78.7682 119.6 81.7016 114C84.6349 108.4 86.1016 101.867 86.1016 94.4C86.1016 86.9333 84.6349 80.4 81.7016 74.8C78.7682 69.2 74.7682 64.8667 69.7016 61.8C64.6349 58.6 58.7682 57 52.1016 57C45.4349 57 39.5682 58.6 34.5016 61.8C29.4349 64.8667 25.4349 69.2 22.5016 74.8C19.5682 80.4 18.1016 86.9333 18.1016 94.4C18.1016 101.867 19.5682 108.4 22.5016 114C25.4349 119.6 29.4349 124 34.5016 127.2C39.5682 130.267 45.4349 131.8 52.1016 131.8ZM159.488 146.4C151.221 146.4 144.354 145 138.888 142.2C133.421 139.4 129.354 135.667 126.688 131C124.021 126.333 122.688 121.267 122.688 115.8C122.688 105.667 126.554 97.8667 134.288 92.4C142.021 86.9333 152.554 84.2 165.888 84.2H192.688V83C192.688 74.3333 190.421 67.8 185.888 63.4C181.354 58.8667 175.288 56.6 167.688 56.6C161.154 56.6 155.488 58.2667 150.688 61.6C146.021 64.8 143.088 69.5333 141.888 75.8H124.688C125.354 68.6 127.754 62.5333 131.888 57.6C136.154 52.6667 141.421 48.9333 147.688 46.4C153.954 43.7333 160.621 42.4 167.688 42.4C181.554 42.4 191.954 46.1333 198.888 53.6C205.954 60.9333 209.488 70.7333 209.488 83V144H194.488L193.488 126.2C190.688 131.8 186.554 136.6 181.088 140.6C175.754 144.467 168.554 146.4 159.488 146.4ZM162.088 132.2C168.488 132.2 173.954 130.533 178.488 127.2C183.154 123.867 186.688 119.533 189.088 114.2C191.488 108.867 192.688 103.267 192.688 97.4V97.2H167.288C157.421 97.2 150.421 98.9333 146.288 102.4C142.288 105.733 140.288 109.933 140.288 115C140.288 120.2 142.154 124.4 145.888 127.6C149.754 130.667 155.154 132.2 162.088 132.2ZM280.291 146.4C270.824 146.4 262.291 144.267 254.691 140C247.224 135.6 241.291 129.533 236.891 121.8C232.624 113.933 230.491 104.8 230.491 94.4C230.491 84 232.624 74.9333 236.891 67.2C241.291 59.3333 247.224 53.2667 254.691 49C262.291 44.6 270.824 42.4 280.291 42.4C292.024 42.4 301.891 45.4667 309.891 51.6C318.024 57.7333 323.157 65.9333 325.291 76.2H308.091C306.757 70.0667 303.491 65.3333 298.291 62C293.091 58.5333 287.024 56.8 280.091 56.8C274.491 56.8 269.224 58.2 264.291 61C259.357 63.8 255.357 68 252.291 73.6C249.224 79.2 247.691 86.1333 247.691 94.4C247.691 102.667 249.224 109.6 252.291 115.2C255.357 120.8 259.357 125.067 264.291 128C269.224 130.8 274.491 132.2 280.091 132.2C287.024 132.2 293.091 130.533 298.291 127.2C303.491 123.733 306.757 118.867 308.091 112.6H325.291C323.291 122.6 318.224 130.733 310.091 137C301.957 143.267 292.024 146.4 280.291 146.4ZM348.753 144V-5.72205e-06H365.553V86.6L406.153 44.8H426.753L382.753 89.6L432.353 144H410.953L365.553 92.6V144H348.753ZM449.534 144V-5.72205e-06H466.334V144H449.534ZM504.07 22.8C500.737 22.8 497.937 21.7333 495.67 19.6C493.537 17.3333 492.47 14.5333 492.47 11.2C492.47 7.99999 493.537 5.33333 495.67 3.19999C497.937 1.06666 500.737 -5.72205e-06 504.07 -5.72205e-06C507.27 -5.72205e-06 510.004 1.06666 512.27 3.19999C514.537 5.33333 515.67 7.99999 515.67 11.2C515.67 14.5333 514.537 17.3333 512.27 19.6C510.004 21.7333 507.27 22.8 504.07 22.8ZM495.67 144V44.8H512.47V144H495.67ZM541.722 144V44.8H556.922L557.922 62.6C561.122 56.3333 565.722 51.4 571.722 47.8C577.722 44.2 584.522 42.4 592.122 42.4C603.855 42.4 613.189 46 620.122 53.2C627.189 60.2667 630.722 71.2 630.722 86V144H613.922V87.8C613.922 67.1333 605.389 56.8 588.322 56.8C579.789 56.8 572.655 59.9333 566.922 66.2C561.322 72.3333 558.522 81.1333 558.522 92.6V144H541.722ZM700.775 146.4C691.308 146.4 682.908 144.267 675.575 140C668.242 135.6 662.442 129.533 658.175 121.8C654.042 114.067 651.975 104.933 651.975 94.4C651.975 84 654.042 74.9333 658.175 67.2C662.308 59.3333 668.042 53.2667 675.375 49C682.842 44.6 691.442 42.4 701.175 42.4C710.775 42.4 719.042 44.6 725.975 49C733.042 53.2667 738.442 58.9333 742.175 66C745.908 73.0667 747.775 80.6667 747.775 88.8C747.775 90.2667 747.708 91.7333 747.575 93.2C747.575 94.6667 747.575 96.3333 747.575 98.2H668.575C668.975 105.8 670.708 112.133 673.775 117.2C676.975 122.133 680.908 125.867 685.575 128.4C690.375 130.933 695.442 132.2 700.775 132.2C707.708 132.2 713.508 130.6 718.175 127.4C722.842 124.2 726.242 119.867 728.375 114.4H744.975C742.308 123.6 737.175 131.267 729.575 137.4C722.108 143.4 712.508 146.4 700.775 146.4ZM700.775 56.6C692.775 56.6 685.642 59.0667 679.375 64C673.242 68.8 669.708 75.8667 668.775 85.2H731.175C730.775 76.2667 727.708 69.2667 721.975 64.2C716.242 59.1333 709.175 56.6 700.775 56.6ZM770.042 144V44.8H785.242L786.642 63.8C789.709 57.2667 794.376 52.0667 800.642 48.2C806.909 44.3333 814.642 42.4 823.842 42.4V60H819.242C813.376 60 807.976 61.0667 803.042 63.2C798.109 65.2 794.176 68.6667 791.242 73.6C788.309 78.5333 786.842 85.3333 786.842 94V144H770.042Z" fill="#F7F7FA"/>
</svg>
