<svg height="440" viewBox="0 0 420 440" fill="none" xmlns="http://www.w3.org/2000/svg">
<rect x="158" width="105" height="105" rx="20" fill="#DDDDDD"/>
<rect x="180" y="22" width="61" height="61" rx="10" fill="#141C2E"/>
<rect x="20" y="41" width="380" height="380" fill="#444444"/>
<rect x="21" y="41" width="36" height="380" fill="#999999"/>
<rect x="364" y="41" width="36" height="380" fill="#999999"/>
<rect x="20" y="77" width="36" height="380" transform="rotate(-90 20 77)" fill="#999999"/>
<rect x="20" y="421" width="36" height="380" transform="rotate(-90 20 421)" fill="#999999"/>
<rect x="20" y="252" width="36" height="380" transform="rotate(-90 20 252)" fill="#FF4136"/>
<rect x="158" y="180" width="105" height="105" rx="20" fill="#FF4136"/>
<rect x="180" y="202" width="61" height="61" rx="10" fill="#444444"/>
<path d="M18.2303 73.5209C8.46717 63.7578 8.46717 47.9287 18.2303 38.1656V38.1656C27.9934 28.4025 43.8225 28.4025 53.5856 38.1656L88.941 73.5209C90.8936 75.4736 90.8936 78.6394 88.941 80.592L60.6567 108.876C58.7041 110.829 55.5382 110.829 53.5856 108.876L18.2303 73.5209Z" fill="#DDDDDD"/>
<path d="M366.891 37.6777C376.654 27.9146 392.483 27.9146 402.246 37.6777V37.6777C412.009 47.4408 412.009 63.2699 402.246 73.033L366.891 108.388C364.938 110.341 361.772 110.341 359.82 108.388L331.536 80.1041C329.583 78.1515 329.583 74.9856 331.536 73.033L366.891 37.6777Z" fill="#DDDDDD"/>
<path d="M402.246 386.891C412.009 396.654 412.009 412.483 402.246 422.246V422.246C392.483 432.009 376.654 432.009 366.891 422.246L331.535 386.891C329.583 384.938 329.583 381.772 331.535 379.82L359.82 351.535C361.772 349.583 364.938 349.583 366.891 351.535L402.246 386.891Z" fill="#DDDDDD"/>
<path d="M53.033 422.246C43.2699 432.009 27.4408 432.009 17.6777 422.246V422.246C7.91457 412.483 7.91457 396.654 17.6777 386.891L53.033 351.536C54.9856 349.583 58.1515 349.583 60.1041 351.536L88.3884 379.82C90.341 381.772 90.341 384.938 88.3884 386.891L53.033 422.246Z" fill="#DDDDDD"/>
</svg>
